<mxfile host="Electron" agent="Mozilla/5.0 (X11; Linux x86_64) AppleWebKit/537.36 (KHTML, like Gecko) draw.io/26.0.9 Chrome/128.0.6613.186 Electron/32.3.0 Safari/537.36" version="26.0.9" pages="3">
  <diagram name="1" id="raGk_D8FTLXwgUmbc4jt">
    <mxGraphModel dx="479" dy="602" grid="1" gridSize="10" guides="1" tooltips="1" connect="1" arrows="1" fold="1" page="1" pageScale="1" pageWidth="400" pageHeight="340" math="0" shadow="0">
      <root>
        <mxCell id="0" />
        <mxCell id="1" parent="0" />
        <mxCell id="YVadF5KtlsCSZIGHM0kt-60" style="edgeStyle=orthogonalEdgeStyle;rounded=0;orthogonalLoop=1;jettySize=auto;html=1;exitX=1;exitY=0.5;exitDx=0;exitDy=0;entryX=0;entryY=0.5;entryDx=0;entryDy=0;fillColor=#f5f5f5;strokeColor=#666666;strokeWidth=2;" edge="1" parent="1" source="YVadF5KtlsCSZIGHM0kt-62" target="YVadF5KtlsCSZIGHM0kt-64">
          <mxGeometry relative="1" as="geometry" />
        </mxCell>
        <mxCell id="YVadF5KtlsCSZIGHM0kt-61" style="edgeStyle=orthogonalEdgeStyle;rounded=0;orthogonalLoop=1;jettySize=auto;html=1;entryX=0.5;entryY=0;entryDx=0;entryDy=0;exitX=0.5;exitY=0;exitDx=0;exitDy=0;fillColor=#dae8fc;strokeColor=#6c8ebf;" edge="1" parent="1" source="YVadF5KtlsCSZIGHM0kt-62" target="YVadF5KtlsCSZIGHM0kt-80">
          <mxGeometry relative="1" as="geometry">
            <Array as="points">
              <mxPoint x="100" y="60" />
              <mxPoint x="40" y="60" />
              <mxPoint x="40" y="220" />
              <mxPoint x="100" y="220" />
            </Array>
          </mxGeometry>
        </mxCell>
        <mxCell id="YVadF5KtlsCSZIGHM0kt-62" value="1" style="text;html=1;align=center;verticalAlign=middle;whiteSpace=wrap;rounded=0;fillColor=#dae8fc;strokeColor=#6c8ebf;fontSize=14;fontColor=#333333;" vertex="1" parent="1">
          <mxGeometry x="80" y="80" width="40" height="40" as="geometry" />
        </mxCell>
        <mxCell id="YVadF5KtlsCSZIGHM0kt-63" style="edgeStyle=orthogonalEdgeStyle;rounded=0;orthogonalLoop=1;jettySize=auto;html=1;exitX=1;exitY=0.5;exitDx=0;exitDy=0;entryX=0;entryY=0.5;entryDx=0;entryDy=0;fillColor=#f5f5f5;strokeColor=#666666;strokeWidth=2;" edge="1" parent="1" source="YVadF5KtlsCSZIGHM0kt-64" target="YVadF5KtlsCSZIGHM0kt-67">
          <mxGeometry relative="1" as="geometry">
            <mxPoint x="220" y="100" as="sourcePoint" />
          </mxGeometry>
        </mxCell>
        <mxCell id="YVadF5KtlsCSZIGHM0kt-64" value="2" style="text;html=1;align=center;verticalAlign=middle;whiteSpace=wrap;rounded=0;fillColor=#f5f5f5;strokeColor=#666666;fontSize=14;fontColor=#333333;" vertex="1" parent="1">
          <mxGeometry x="140" y="80" width="40" height="40" as="geometry" />
        </mxCell>
        <mxCell id="YVadF5KtlsCSZIGHM0kt-65" style="edgeStyle=orthogonalEdgeStyle;rounded=0;orthogonalLoop=1;jettySize=auto;html=1;exitX=1;exitY=0.5;exitDx=0;exitDy=0;entryX=0;entryY=0.5;entryDx=0;entryDy=0;fillColor=#f5f5f5;strokeColor=#666666;strokeWidth=2;" edge="1" parent="1" source="YVadF5KtlsCSZIGHM0kt-67" target="YVadF5KtlsCSZIGHM0kt-68">
          <mxGeometry relative="1" as="geometry" />
        </mxCell>
        <mxCell id="YVadF5KtlsCSZIGHM0kt-66" style="edgeStyle=orthogonalEdgeStyle;rounded=0;orthogonalLoop=1;jettySize=auto;html=1;exitX=0.5;exitY=0;exitDx=0;exitDy=0;entryX=0.5;entryY=0;entryDx=0;entryDy=0;fillColor=#d5e8d4;strokeColor=#82b366;" edge="1" parent="1" source="YVadF5KtlsCSZIGHM0kt-67" target="YVadF5KtlsCSZIGHM0kt-73">
          <mxGeometry relative="1" as="geometry">
            <Array as="points">
              <mxPoint x="220" y="40" />
              <mxPoint x="60" y="40" />
              <mxPoint x="60" y="140" />
              <mxPoint x="100" y="140" />
            </Array>
          </mxGeometry>
        </mxCell>
        <mxCell id="YVadF5KtlsCSZIGHM0kt-67" value="3" style="text;html=1;align=center;verticalAlign=middle;whiteSpace=wrap;rounded=0;fillColor=#d5e8d4;strokeColor=#82b366;fontSize=14;fontColor=#333333;" vertex="1" parent="1">
          <mxGeometry x="200" y="80" width="40" height="40" as="geometry" />
        </mxCell>
        <mxCell id="YVadF5KtlsCSZIGHM0kt-68" value="4" style="text;html=1;align=center;verticalAlign=middle;whiteSpace=wrap;rounded=0;fillColor=#f5f5f5;strokeColor=#666666;fontSize=14;fontColor=#333333;" vertex="1" parent="1">
          <mxGeometry x="260" y="80" width="40" height="40" as="geometry" />
        </mxCell>
        <mxCell id="YVadF5KtlsCSZIGHM0kt-69" value="head" style="text;html=1;align=center;verticalAlign=middle;whiteSpace=wrap;rounded=0;fontSize=10;" vertex="1" parent="1">
          <mxGeometry x="80" y="120" width="280" height="20" as="geometry" />
        </mxCell>
        <mxCell id="YVadF5KtlsCSZIGHM0kt-70" value="5" style="text;html=1;align=center;verticalAlign=middle;whiteSpace=wrap;rounded=0;fillColor=#f5f5f5;strokeColor=#666666;fontSize=14;fontColor=#333333;" vertex="1" parent="1">
          <mxGeometry x="320" y="80" width="40" height="40" as="geometry" />
        </mxCell>
        <mxCell id="YVadF5KtlsCSZIGHM0kt-71" style="edgeStyle=orthogonalEdgeStyle;rounded=0;orthogonalLoop=1;jettySize=auto;html=1;entryX=0;entryY=0.5;entryDx=0;entryDy=0;fillColor=#f5f5f5;strokeColor=#666666;strokeWidth=2;exitX=1;exitY=0.5;exitDx=0;exitDy=0;" edge="1" parent="1" source="YVadF5KtlsCSZIGHM0kt-68" target="YVadF5KtlsCSZIGHM0kt-70">
          <mxGeometry relative="1" as="geometry">
            <mxPoint x="310" y="110" as="sourcePoint" />
            <mxPoint x="270" y="110" as="targetPoint" />
          </mxGeometry>
        </mxCell>
        <mxCell id="YVadF5KtlsCSZIGHM0kt-72" style="edgeStyle=orthogonalEdgeStyle;rounded=0;orthogonalLoop=1;jettySize=auto;html=1;exitX=1;exitY=0.5;exitDx=0;exitDy=0;entryX=0;entryY=0.5;entryDx=0;entryDy=0;fillColor=#d5e8d4;strokeColor=#82b366;strokeWidth=2;" edge="1" parent="1" source="YVadF5KtlsCSZIGHM0kt-73" target="YVadF5KtlsCSZIGHM0kt-75">
          <mxGeometry relative="1" as="geometry" />
        </mxCell>
        <mxCell id="YVadF5KtlsCSZIGHM0kt-73" value="3" style="text;html=1;align=center;verticalAlign=middle;whiteSpace=wrap;rounded=0;fillColor=#d5e8d4;strokeColor=#82b366;fontSize=14;fontColor=#333333;" vertex="1" parent="1">
          <mxGeometry x="80" y="160" width="40" height="40" as="geometry" />
        </mxCell>
        <mxCell id="YVadF5KtlsCSZIGHM0kt-74" style="edgeStyle=orthogonalEdgeStyle;rounded=0;orthogonalLoop=1;jettySize=auto;html=1;exitX=1;exitY=0.5;exitDx=0;exitDy=0;entryX=0;entryY=0.5;entryDx=0;entryDy=0;fillColor=#d5e8d4;strokeColor=#82b366;strokeWidth=2;" edge="1" parent="1" source="YVadF5KtlsCSZIGHM0kt-75" target="YVadF5KtlsCSZIGHM0kt-76">
          <mxGeometry relative="1" as="geometry">
            <mxPoint x="220" y="180" as="sourcePoint" />
          </mxGeometry>
        </mxCell>
        <mxCell id="YVadF5KtlsCSZIGHM0kt-75" value="4" style="text;html=1;align=center;verticalAlign=middle;whiteSpace=wrap;rounded=0;fillColor=#d5e8d4;strokeColor=#82b366;fontSize=14;fontColor=#333333;" vertex="1" parent="1">
          <mxGeometry x="140" y="160" width="40" height="40" as="geometry" />
        </mxCell>
        <mxCell id="YVadF5KtlsCSZIGHM0kt-76" value="5" style="text;html=1;align=center;verticalAlign=middle;whiteSpace=wrap;rounded=0;fillColor=#d5e8d4;strokeColor=#82b366;fontSize=14;fontColor=#333333;" vertex="1" parent="1">
          <mxGeometry x="200" y="160" width="40" height="40" as="geometry" />
        </mxCell>
        <mxCell id="YVadF5KtlsCSZIGHM0kt-77" value="left" style="text;html=1;align=center;verticalAlign=middle;whiteSpace=wrap;rounded=0;fontSize=10;" vertex="1" parent="1">
          <mxGeometry x="80" y="200" width="160" height="20" as="geometry" />
        </mxCell>
        <mxCell id="YVadF5KtlsCSZIGHM0kt-78" value="right" style="text;html=1;align=center;verticalAlign=middle;whiteSpace=wrap;rounded=0;fontSize=10;" vertex="1" parent="1">
          <mxGeometry x="80" y="280" width="280" height="20" as="geometry" />
        </mxCell>
        <mxCell id="YVadF5KtlsCSZIGHM0kt-79" style="edgeStyle=orthogonalEdgeStyle;rounded=0;orthogonalLoop=1;jettySize=auto;html=1;exitX=1;exitY=0.5;exitDx=0;exitDy=0;entryX=0;entryY=0.5;entryDx=0;entryDy=0;fillColor=#dae8fc;strokeColor=#6c8ebf;strokeWidth=2;" edge="1" parent="1" source="YVadF5KtlsCSZIGHM0kt-80" target="YVadF5KtlsCSZIGHM0kt-82">
          <mxGeometry relative="1" as="geometry" />
        </mxCell>
        <mxCell id="YVadF5KtlsCSZIGHM0kt-80" value="1" style="text;html=1;align=center;verticalAlign=middle;whiteSpace=wrap;rounded=0;fillColor=#dae8fc;strokeColor=#6c8ebf;fontSize=14;fontColor=#333333;" vertex="1" parent="1">
          <mxGeometry x="80" y="240" width="40" height="40" as="geometry" />
        </mxCell>
        <mxCell id="YVadF5KtlsCSZIGHM0kt-81" style="edgeStyle=orthogonalEdgeStyle;rounded=0;orthogonalLoop=1;jettySize=auto;html=1;exitX=1;exitY=0.5;exitDx=0;exitDy=0;entryX=0;entryY=0.5;entryDx=0;entryDy=0;fillColor=#dae8fc;strokeColor=#6c8ebf;strokeWidth=2;" edge="1" parent="1" source="YVadF5KtlsCSZIGHM0kt-82" target="YVadF5KtlsCSZIGHM0kt-84">
          <mxGeometry relative="1" as="geometry">
            <mxPoint x="220" y="260" as="sourcePoint" />
          </mxGeometry>
        </mxCell>
        <mxCell id="YVadF5KtlsCSZIGHM0kt-82" value="2" style="text;html=1;align=center;verticalAlign=middle;whiteSpace=wrap;rounded=0;fillColor=#dae8fc;strokeColor=#6c8ebf;fontSize=14;fontColor=#333333;" vertex="1" parent="1">
          <mxGeometry x="140" y="240" width="40" height="40" as="geometry" />
        </mxCell>
        <mxCell id="YVadF5KtlsCSZIGHM0kt-83" style="edgeStyle=orthogonalEdgeStyle;rounded=0;orthogonalLoop=1;jettySize=auto;html=1;exitX=1;exitY=0.5;exitDx=0;exitDy=0;entryX=0;entryY=0.5;entryDx=0;entryDy=0;fillColor=#dae8fc;strokeColor=#6c8ebf;strokeWidth=2;" edge="1" parent="1" source="YVadF5KtlsCSZIGHM0kt-84" target="YVadF5KtlsCSZIGHM0kt-85">
          <mxGeometry relative="1" as="geometry" />
        </mxCell>
        <mxCell id="YVadF5KtlsCSZIGHM0kt-84" value="3" style="text;html=1;align=center;verticalAlign=middle;whiteSpace=wrap;rounded=0;fillColor=#dae8fc;strokeColor=#6c8ebf;fontSize=14;fontColor=#333333;" vertex="1" parent="1">
          <mxGeometry x="200" y="240" width="40" height="40" as="geometry" />
        </mxCell>
        <mxCell id="YVadF5KtlsCSZIGHM0kt-85" value="4" style="text;html=1;align=center;verticalAlign=middle;whiteSpace=wrap;rounded=0;fillColor=#dae8fc;strokeColor=#6c8ebf;fontSize=14;fontColor=#333333;" vertex="1" parent="1">
          <mxGeometry x="260" y="240" width="40" height="40" as="geometry" />
        </mxCell>
        <mxCell id="YVadF5KtlsCSZIGHM0kt-86" value="5" style="text;html=1;align=center;verticalAlign=middle;whiteSpace=wrap;rounded=0;fillColor=#dae8fc;strokeColor=#6c8ebf;fontSize=14;fontColor=#333333;" vertex="1" parent="1">
          <mxGeometry x="320" y="240" width="40" height="40" as="geometry" />
        </mxCell>
        <mxCell id="YVadF5KtlsCSZIGHM0kt-87" style="edgeStyle=orthogonalEdgeStyle;rounded=0;orthogonalLoop=1;jettySize=auto;html=1;entryX=0;entryY=0.5;entryDx=0;entryDy=0;fillColor=#dae8fc;strokeColor=#6c8ebf;strokeWidth=2;exitX=1;exitY=0.5;exitDx=0;exitDy=0;" edge="1" parent="1" source="YVadF5KtlsCSZIGHM0kt-85" target="YVadF5KtlsCSZIGHM0kt-86">
          <mxGeometry relative="1" as="geometry">
            <mxPoint x="310" y="270" as="sourcePoint" />
            <mxPoint x="270" y="270" as="targetPoint" />
          </mxGeometry>
        </mxCell>
      </root>
    </mxGraphModel>
  </diagram>
  <diagram name="2" id="RoixcsmpaqIULgCueWz2">
    <mxGraphModel dx="575" dy="723" grid="1" gridSize="10" guides="1" tooltips="1" connect="1" arrows="1" fold="1" page="1" pageScale="1" pageWidth="360" pageHeight="220" math="0" shadow="0">
      <root>
        <mxCell id="Oxt3ACpbCmPrt3SXVsv7-0" />
        <mxCell id="Oxt3ACpbCmPrt3SXVsv7-1" parent="Oxt3ACpbCmPrt3SXVsv7-0" />
        <mxCell id="Oxt3ACpbCmPrt3SXVsv7-14" style="edgeStyle=orthogonalEdgeStyle;rounded=0;orthogonalLoop=1;jettySize=auto;html=1;exitX=1;exitY=0.5;exitDx=0;exitDy=0;entryX=0;entryY=0.5;entryDx=0;entryDy=0;fillColor=#f5f5f5;strokeColor=#666666;strokeWidth=2;" edge="1" parent="Oxt3ACpbCmPrt3SXVsv7-1" source="Oxt3ACpbCmPrt3SXVsv7-15" target="Oxt3ACpbCmPrt3SXVsv7-17">
          <mxGeometry relative="1" as="geometry" />
        </mxCell>
        <mxCell id="wCWj-v5Zl7qHfJZhNCl3-0" style="edgeStyle=orthogonalEdgeStyle;rounded=0;orthogonalLoop=1;jettySize=auto;html=1;exitX=0.5;exitY=1;exitDx=0;exitDy=0;entryX=0.5;entryY=0;entryDx=0;entryDy=0;fillColor=#f5f5f5;strokeColor=#666666;" edge="1" parent="Oxt3ACpbCmPrt3SXVsv7-1" source="Oxt3ACpbCmPrt3SXVsv7-15" target="Oxt3ACpbCmPrt3SXVsv7-22">
          <mxGeometry relative="1" as="geometry" />
        </mxCell>
        <mxCell id="Oxt3ACpbCmPrt3SXVsv7-15" value="3" style="text;html=1;align=center;verticalAlign=middle;whiteSpace=wrap;rounded=0;fillColor=#f5f5f5;strokeColor=#666666;fontSize=14;fontColor=#333333;" vertex="1" parent="Oxt3ACpbCmPrt3SXVsv7-1">
          <mxGeometry x="40" y="40" width="40" height="40" as="geometry" />
        </mxCell>
        <mxCell id="Oxt3ACpbCmPrt3SXVsv7-16" style="edgeStyle=orthogonalEdgeStyle;rounded=0;orthogonalLoop=1;jettySize=auto;html=1;exitX=1;exitY=0.5;exitDx=0;exitDy=0;entryX=0;entryY=0.5;entryDx=0;entryDy=0;fillColor=#f5f5f5;strokeColor=#666666;strokeWidth=2;" edge="1" parent="Oxt3ACpbCmPrt3SXVsv7-1" source="Oxt3ACpbCmPrt3SXVsv7-17" target="Oxt3ACpbCmPrt3SXVsv7-18">
          <mxGeometry relative="1" as="geometry">
            <mxPoint x="180" y="60" as="sourcePoint" />
          </mxGeometry>
        </mxCell>
        <mxCell id="wCWj-v5Zl7qHfJZhNCl3-1" style="edgeStyle=orthogonalEdgeStyle;rounded=0;orthogonalLoop=1;jettySize=auto;html=1;exitX=0.5;exitY=1;exitDx=0;exitDy=0;entryX=0.5;entryY=0;entryDx=0;entryDy=0;fillColor=#f5f5f5;strokeColor=#666666;" edge="1" parent="Oxt3ACpbCmPrt3SXVsv7-1" source="Oxt3ACpbCmPrt3SXVsv7-17" target="Oxt3ACpbCmPrt3SXVsv7-24">
          <mxGeometry relative="1" as="geometry" />
        </mxCell>
        <mxCell id="Oxt3ACpbCmPrt3SXVsv7-17" value="4" style="text;html=1;align=center;verticalAlign=middle;whiteSpace=wrap;rounded=0;fillColor=#f5f5f5;strokeColor=#666666;fontSize=14;fontColor=#333333;" vertex="1" parent="Oxt3ACpbCmPrt3SXVsv7-1">
          <mxGeometry x="100" y="40" width="40" height="40" as="geometry" />
        </mxCell>
        <mxCell id="wCWj-v5Zl7qHfJZhNCl3-2" style="edgeStyle=orthogonalEdgeStyle;rounded=0;orthogonalLoop=1;jettySize=auto;html=1;exitX=0.5;exitY=1;exitDx=0;exitDy=0;entryX=0.5;entryY=0;entryDx=0;entryDy=0;fillColor=#f5f5f5;strokeColor=#666666;" edge="1" parent="Oxt3ACpbCmPrt3SXVsv7-1" source="Oxt3ACpbCmPrt3SXVsv7-18" target="Oxt3ACpbCmPrt3SXVsv7-26">
          <mxGeometry relative="1" as="geometry" />
        </mxCell>
        <mxCell id="Oxt3ACpbCmPrt3SXVsv7-18" value="5" style="text;html=1;align=center;verticalAlign=middle;whiteSpace=wrap;rounded=0;fillColor=#f5f5f5;strokeColor=#666666;fontSize=14;fontColor=#333333;" vertex="1" parent="Oxt3ACpbCmPrt3SXVsv7-1">
          <mxGeometry x="160" y="40" width="40" height="40" as="geometry" />
        </mxCell>
        <mxCell id="Oxt3ACpbCmPrt3SXVsv7-19" value="left" style="text;html=1;align=center;verticalAlign=middle;whiteSpace=wrap;rounded=0;fontSize=10;" vertex="1" parent="Oxt3ACpbCmPrt3SXVsv7-1">
          <mxGeometry x="40" y="80" width="160" height="20" as="geometry" />
        </mxCell>
        <mxCell id="Oxt3ACpbCmPrt3SXVsv7-20" value="right" style="text;html=1;align=center;verticalAlign=middle;whiteSpace=wrap;rounded=0;fontSize=10;" vertex="1" parent="Oxt3ACpbCmPrt3SXVsv7-1">
          <mxGeometry x="40" y="160" width="280" height="20" as="geometry" />
        </mxCell>
        <mxCell id="Oxt3ACpbCmPrt3SXVsv7-21" style="edgeStyle=orthogonalEdgeStyle;rounded=0;orthogonalLoop=1;jettySize=auto;html=1;exitX=1;exitY=0.5;exitDx=0;exitDy=0;entryX=0;entryY=0.5;entryDx=0;entryDy=0;fillColor=#f5f5f5;strokeColor=#666666;strokeWidth=2;" edge="1" parent="Oxt3ACpbCmPrt3SXVsv7-1" source="Oxt3ACpbCmPrt3SXVsv7-22" target="Oxt3ACpbCmPrt3SXVsv7-24">
          <mxGeometry relative="1" as="geometry" />
        </mxCell>
        <mxCell id="Oxt3ACpbCmPrt3SXVsv7-22" value="1" style="text;html=1;align=center;verticalAlign=middle;whiteSpace=wrap;rounded=0;fillColor=#f5f5f5;strokeColor=#666666;fontSize=14;fontColor=#333333;" vertex="1" parent="Oxt3ACpbCmPrt3SXVsv7-1">
          <mxGeometry x="40" y="120" width="40" height="40" as="geometry" />
        </mxCell>
        <mxCell id="Oxt3ACpbCmPrt3SXVsv7-23" style="edgeStyle=orthogonalEdgeStyle;rounded=0;orthogonalLoop=1;jettySize=auto;html=1;exitX=1;exitY=0.5;exitDx=0;exitDy=0;entryX=0;entryY=0.5;entryDx=0;entryDy=0;fillColor=#f5f5f5;strokeColor=#666666;strokeWidth=2;" edge="1" parent="Oxt3ACpbCmPrt3SXVsv7-1" source="Oxt3ACpbCmPrt3SXVsv7-24" target="Oxt3ACpbCmPrt3SXVsv7-26">
          <mxGeometry relative="1" as="geometry">
            <mxPoint x="180" y="140" as="sourcePoint" />
          </mxGeometry>
        </mxCell>
        <mxCell id="Oxt3ACpbCmPrt3SXVsv7-24" value="2" style="text;html=1;align=center;verticalAlign=middle;whiteSpace=wrap;rounded=0;fillColor=#f5f5f5;strokeColor=#666666;fontSize=14;fontColor=#333333;" vertex="1" parent="Oxt3ACpbCmPrt3SXVsv7-1">
          <mxGeometry x="100" y="120" width="40" height="40" as="geometry" />
        </mxCell>
        <mxCell id="Oxt3ACpbCmPrt3SXVsv7-25" style="edgeStyle=orthogonalEdgeStyle;rounded=0;orthogonalLoop=1;jettySize=auto;html=1;exitX=1;exitY=0.5;exitDx=0;exitDy=0;entryX=0;entryY=0.5;entryDx=0;entryDy=0;fillColor=#f5f5f5;strokeColor=#666666;strokeWidth=2;" edge="1" parent="Oxt3ACpbCmPrt3SXVsv7-1" source="Oxt3ACpbCmPrt3SXVsv7-26" target="Oxt3ACpbCmPrt3SXVsv7-27">
          <mxGeometry relative="1" as="geometry" />
        </mxCell>
        <mxCell id="Oxt3ACpbCmPrt3SXVsv7-26" value="3" style="text;html=1;align=center;verticalAlign=middle;whiteSpace=wrap;rounded=0;fillColor=#f5f5f5;strokeColor=#666666;fontSize=14;fontColor=#333333;" vertex="1" parent="Oxt3ACpbCmPrt3SXVsv7-1">
          <mxGeometry x="160" y="120" width="40" height="40" as="geometry" />
        </mxCell>
        <mxCell id="Oxt3ACpbCmPrt3SXVsv7-27" value="4" style="text;html=1;align=center;verticalAlign=middle;whiteSpace=wrap;rounded=0;fillColor=#dae8fc;strokeColor=#6c8ebf;fontSize=14;fontColor=#333333;" vertex="1" parent="Oxt3ACpbCmPrt3SXVsv7-1">
          <mxGeometry x="220" y="120" width="40" height="40" as="geometry" />
        </mxCell>
        <mxCell id="Oxt3ACpbCmPrt3SXVsv7-28" value="5" style="text;html=1;align=center;verticalAlign=middle;whiteSpace=wrap;rounded=0;fillColor=#f5f5f5;strokeColor=#666666;fontSize=14;fontColor=#333333;" vertex="1" parent="Oxt3ACpbCmPrt3SXVsv7-1">
          <mxGeometry x="280" y="120" width="40" height="40" as="geometry" />
        </mxCell>
        <mxCell id="Oxt3ACpbCmPrt3SXVsv7-29" style="edgeStyle=orthogonalEdgeStyle;rounded=0;orthogonalLoop=1;jettySize=auto;html=1;entryX=0;entryY=0.5;entryDx=0;entryDy=0;fillColor=#f5f5f5;strokeColor=#666666;strokeWidth=2;exitX=1;exitY=0.5;exitDx=0;exitDy=0;" edge="1" parent="Oxt3ACpbCmPrt3SXVsv7-1" source="Oxt3ACpbCmPrt3SXVsv7-27" target="Oxt3ACpbCmPrt3SXVsv7-28">
          <mxGeometry relative="1" as="geometry">
            <mxPoint x="270" y="150" as="sourcePoint" />
            <mxPoint x="230" y="150" as="targetPoint" />
          </mxGeometry>
        </mxCell>
      </root>
    </mxGraphModel>
  </diagram>
  <diagram name="3" id="0Q2cgf2Bsoh7sTHdpLrN">
    <mxGraphModel dx="447" dy="562" grid="1" gridSize="10" guides="1" tooltips="1" connect="1" arrows="1" fold="1" page="1" pageScale="1" pageWidth="300" pageHeight="140" math="0" shadow="0">
      <root>
        <mxCell id="gKgArgK09yJ1ST1bXo8--0" />
        <mxCell id="gKgArgK09yJ1ST1bXo8--1" parent="gKgArgK09yJ1ST1bXo8--0" />
        <mxCell id="gKgArgK09yJ1ST1bXo8--11" value="right" style="text;html=1;align=center;verticalAlign=middle;whiteSpace=wrap;rounded=0;fontSize=10;" vertex="1" parent="gKgArgK09yJ1ST1bXo8--1">
          <mxGeometry x="40" y="80" width="220" height="20" as="geometry" />
        </mxCell>
        <mxCell id="gKgArgK09yJ1ST1bXo8--12" style="edgeStyle=orthogonalEdgeStyle;rounded=0;orthogonalLoop=1;jettySize=auto;html=1;exitX=1;exitY=0.5;exitDx=0;exitDy=0;entryX=0;entryY=0.5;entryDx=0;entryDy=0;fillColor=#f5f5f5;strokeColor=#666666;strokeWidth=2;" edge="1" parent="gKgArgK09yJ1ST1bXo8--1" source="gKgArgK09yJ1ST1bXo8--13" target="gKgArgK09yJ1ST1bXo8--15">
          <mxGeometry relative="1" as="geometry" />
        </mxCell>
        <mxCell id="gKgArgK09yJ1ST1bXo8--13" value="1" style="text;html=1;align=center;verticalAlign=middle;whiteSpace=wrap;rounded=0;fillColor=#f5f5f5;strokeColor=#666666;fontSize=14;fontColor=#333333;" vertex="1" parent="gKgArgK09yJ1ST1bXo8--1">
          <mxGeometry x="40" y="40" width="40" height="40" as="geometry" />
        </mxCell>
        <mxCell id="gKgArgK09yJ1ST1bXo8--14" style="edgeStyle=orthogonalEdgeStyle;rounded=0;orthogonalLoop=1;jettySize=auto;html=1;exitX=1;exitY=0.5;exitDx=0;exitDy=0;entryX=0;entryY=0.5;entryDx=0;entryDy=0;fillColor=#f5f5f5;strokeColor=#666666;strokeWidth=2;" edge="1" parent="gKgArgK09yJ1ST1bXo8--1" source="gKgArgK09yJ1ST1bXo8--15" target="gKgArgK09yJ1ST1bXo8--17">
          <mxGeometry relative="1" as="geometry">
            <mxPoint x="180" y="60" as="sourcePoint" />
          </mxGeometry>
        </mxCell>
        <mxCell id="gKgArgK09yJ1ST1bXo8--15" value="2" style="text;html=1;align=center;verticalAlign=middle;whiteSpace=wrap;rounded=0;fillColor=#f5f5f5;strokeColor=#666666;fontSize=14;fontColor=#333333;" vertex="1" parent="gKgArgK09yJ1ST1bXo8--1">
          <mxGeometry x="100" y="40" width="40" height="40" as="geometry" />
        </mxCell>
        <mxCell id="gKgArgK09yJ1ST1bXo8--17" value="3" style="text;html=1;align=center;verticalAlign=middle;whiteSpace=wrap;rounded=0;fillColor=#f5f5f5;strokeColor=#666666;fontSize=14;fontColor=#333333;" vertex="1" parent="gKgArgK09yJ1ST1bXo8--1">
          <mxGeometry x="160" y="40" width="40" height="40" as="geometry" />
        </mxCell>
        <mxCell id="gKgArgK09yJ1ST1bXo8--19" value="5" style="text;html=1;align=center;verticalAlign=middle;whiteSpace=wrap;rounded=0;fillColor=#f5f5f5;strokeColor=#666666;fontSize=14;fontColor=#333333;" vertex="1" parent="gKgArgK09yJ1ST1bXo8--1">
          <mxGeometry x="220" y="40" width="40" height="40" as="geometry" />
        </mxCell>
        <mxCell id="gKgArgK09yJ1ST1bXo8--20" style="edgeStyle=orthogonalEdgeStyle;rounded=0;orthogonalLoop=1;jettySize=auto;html=1;entryX=0;entryY=0.5;entryDx=0;entryDy=0;fillColor=#f5f5f5;strokeColor=#666666;strokeWidth=2;exitX=1;exitY=0.5;exitDx=0;exitDy=0;" edge="1" parent="gKgArgK09yJ1ST1bXo8--1" source="gKgArgK09yJ1ST1bXo8--17" target="gKgArgK09yJ1ST1bXo8--19">
          <mxGeometry relative="1" as="geometry">
            <mxPoint x="260" y="60" as="sourcePoint" />
            <mxPoint x="230" y="70" as="targetPoint" />
          </mxGeometry>
        </mxCell>
      </root>
    </mxGraphModel>
  </diagram>
</mxfile>
